<?xml version="1.0" encoding="utf-8"?>
<!-- Generator: Adobe Illustrator 23.0.5, SVG Export Plug-In . SVG Version: 6.00 Build 0)  -->
<svg version="1.1" id="Layer_2" xmlns="http://www.w3.org/2000/svg" xmlns:xlink="http://www.w3.org/1999/xlink" x="0px" y="0px"
	 viewBox="0 0 154.72 154.72" style="enable-background:new 0 0 154.72 154.72;" xml:space="preserve">
<style type="text/css">
	.st0{fill:#0D4F2B;}
	.st1{fill:url(#SVGID_1_);}
	.st2{fill:#116338;}
	.st3{fill:#231F20;}
	.st4{fill:#116338;stroke:#116338;stroke-width:0.5;stroke-miterlimit:10;}
	.st5{fill:url(#SVGID_2_);}
	.st6{fill:#78EAE2;stroke:#78EAE2;stroke-miterlimit:10;}
	.st7{fill:#EFEEEA;}
	.st8{fill:#78EAE2;}
</style>
<g>
	<polygon class="st0" points="53.12,26.57 47.77,29.97 45.99,33.5 44.86,35.25 45.97,36.74 47.64,36.38 49.54,34.61 51.01,32.45 
		53.28,30.52 54.36,28.75 54.69,26.83 	"/>
	<linearGradient id="SVGID_1_" gradientUnits="userSpaceOnUse" x1="40.5162" y1="45.3632" x2="111.8319" y2="45.3632">
		<stop  offset="2.024560e-07" style="stop-color:#27B46E"/>
		<stop  offset="0.0231" style="stop-color:#2DB56A"/>
		<stop  offset="0.28" style="stop-color:#6AC445"/>
		<stop  offset="0.5152" style="stop-color:#9AD027"/>
		<stop  offset="0.7211" style="stop-color:#BDD812"/>
		<stop  offset="0.8897" style="stop-color:#D2DD05"/>
		<stop  offset="1" style="stop-color:#DADF00"/>
	</linearGradient>
	<path class="st1" d="M57.25,54.78C49.24,57,42.7,63.53,40.72,71.29c-0.26,1.03-0.39,2.26,0.39,3.01c0.68,0.65,1.77,0.65,2.73,0.59
		c7.01-0.42,13.98-1.58,20.73-3.46c1.78-0.5,3.59-1.06,5.07-2.14c3.16-2.31,3.35-3.22,4.11-6.96c0.8,2.17,4.24,4.97,5.82,5.76
		c8.11,4.07,17.28,6.21,26.44,6.16c1.42-0.01,2.95-0.1,4.08-0.94c1.24-0.93,1.67-2.55,1.74-4.06c0.23-4.97-2.57-9.64-5.95-13.42
		c-5.15-5.75-12.69-10.38-20.54-9.4c5.6-2.15,9.14-7.72,10.28-13.39c1.14-5.67,0.29-11.52-0.57-17.24c-1.24,2.81-5.19,3-8.34,3.5
		c-6.92,1.11-12.74,5.83-16.58,11.45c-3.84,5.62-5.98,12.11-8.08,18.52c2.06-5.23,0.46-11.53-3.78-15.38
		c-4.93-4.47-5.32-2.87-7.44-0.99c6.81,3.68,10.67,11.19,9.91,18.64c-0.17,1.67-1.03,3.71-2.79,3.72c-0.48,0-0.96-0.16-1.42-0.04
		c-0.46,0.12-0.78,0.77-0.38,1.03L57.25,54.78z"/>
	<g>
		<g>
			<g>
				<g>
					<path class="st2" d="M18.46,72.42c0,0,1.4,0.13,3.85,0.35c2.44,0.24,5.94,0.44,10.13,0.53c4.19,0.08,9.08,0.02,14.28-0.36
						c2.6-0.18,5.29-0.46,8-0.8c2.7-0.35,5.49-0.76,8.16-1.31c2.67-0.55,5.24-1.31,7.19-2.8c0.96-0.74,1.75-1.63,2.15-2.6
						c0.1-0.24,0.17-0.49,0.22-0.73l0.05-0.32c0-0.15,0.02-0.34,0.01-0.46c-0.01-0.37-0.15-0.94-0.38-1.38
						c-0.96-1.87-3.16-3.09-5.28-3.24c-2.13-0.15-4.35,0.53-5.46,1.87c-1.13,1.33-0.86,3.29,0.22,4.32c1.1,1.11,2.6,1.33,3.77,1.32
						c1.19-0.04,2.1-0.36,2.65-0.7c0.27-0.17,0.47-0.32,0.59-0.44c0.12-0.11,0.18-0.17,0.18-0.17s-0.05,0.07-0.16,0.2
						c-0.1,0.13-0.28,0.31-0.53,0.52c-0.51,0.4-1.41,0.9-2.69,1.04c-0.63,0.08-1.35,0.08-2.12-0.07c-0.39-0.07-0.77-0.19-1.19-0.37
						c-0.36-0.16-0.78-0.4-1.12-0.7c-0.72-0.59-1.28-1.48-1.47-2.52c-0.2-1.04,0.06-2.22,0.75-3.19c1.43-1.94,4.03-2.86,6.68-2.81
						c2.66,0.07,5.59,1.38,7.08,4.05c0.36,0.69,0.61,1.36,0.67,2.27c0.01,0.19,0,0.33,0.01,0.5c-0.01,0.29-0.04,0.42-0.06,0.64
						c-0.07,0.39-0.17,0.77-0.31,1.14c-0.56,1.47-1.6,2.65-2.79,3.57c-1.18,0.93-2.55,1.61-3.93,2.13c-1.38,0.52-2.8,0.89-4.21,1.19
						c-2.82,0.56-5.6,0.93-8.38,1.26c-2.77,0.34-5.51,0.49-8.17,0.62c-2.65,0.13-5.22,0.1-7.65,0.05c-2.43-0.06-4.73-0.2-6.83-0.4
						c-2.11-0.17-4.04-0.43-5.74-0.68c-1.7-0.26-3.17-0.5-4.39-0.73c-1.22-0.2-2.15-0.44-2.8-0.58
						C18.8,72.5,18.46,72.42,18.46,72.42z"/>
					<path class="st2" d="M132.26,72.42c0,0-0.34,0.08-0.99,0.22c-0.64,0.14-1.58,0.37-2.8,0.58c-1.21,0.23-2.69,0.47-4.39,0.73
						c-1.7,0.25-3.62,0.5-5.74,0.68c-2.11,0.19-4.4,0.34-6.83,0.4c-2.43,0.05-5,0.08-7.65-0.05c-2.65-0.13-5.4-0.28-8.17-0.62
						c-2.78-0.34-5.56-0.71-8.38-1.26c-1.41-0.3-2.83-0.67-4.21-1.19c-1.38-0.52-2.75-1.2-3.93-2.13c-1.18-0.92-2.23-2.1-2.79-3.57
						c-0.14-0.37-0.24-0.75-0.31-1.14c-0.02-0.22-0.05-0.34-0.06-0.64c0-0.17-0.01-0.3,0.01-0.5c0.06-0.91,0.3-1.58,0.67-2.27
						c1.49-2.67,4.42-3.98,7.08-4.05c2.64-0.05,5.24,0.87,6.68,2.81c0.69,0.97,0.95,2.15,0.75,3.19c-0.19,1.04-0.75,1.93-1.47,2.52
						c-0.34,0.3-0.77,0.54-1.12,0.7c-0.42,0.18-0.8,0.3-1.19,0.37c-0.77,0.15-1.49,0.15-2.12,0.07c-1.27-0.14-2.17-0.64-2.69-1.04
						c-0.26-0.21-0.43-0.38-0.53-0.52c-0.1-0.13-0.16-0.2-0.16-0.2s0.06,0.06,0.18,0.17c0.11,0.12,0.31,0.27,0.59,0.44
						c0.54,0.34,1.46,0.66,2.65,0.7c1.18,0.02,2.68-0.21,3.77-1.32c1.08-1.03,1.35-2.98,0.22-4.32c-1.12-1.34-3.33-2.02-5.46-1.87
						c-2.12,0.14-4.32,1.37-5.28,3.24c-0.23,0.43-0.37,1.01-0.38,1.38c-0.01,0.13,0.01,0.31,0.01,0.46l0.05,0.32
						c0.05,0.25,0.12,0.49,0.22,0.73c0.41,0.96,1.19,1.86,2.15,2.6c1.95,1.49,4.52,2.25,7.19,2.8c2.67,0.55,5.46,0.96,8.16,1.31
						c2.71,0.34,5.4,0.62,8,0.8c5.21,0.38,10.09,0.44,14.28,0.36c4.19-0.1,7.69-0.3,10.13-0.53
						C130.86,72.55,132.26,72.42,132.26,72.42z"/>
				</g>
			</g>
		</g>
		<g>
			<path class="st2" d="M59.68,54.4c-13.71-0.13-22.71,8.5-24.82,20.2c0.16-0.04,2.23-0.14,2.39-0.17
				c2.17-11.18,9.39-18.6,22.77-19.27C60.21,55.16,59.87,54.4,59.68,54.4z"/>
			<path class="st2" d="M60.02,55.16c9.7-5.57,22.27-9.63,33.62-6.97c5.51,1.29,11.06,4.34,14.32,8.85
				c1.17,1.61,2.07,3.38,2.97,5.14c1.21,2.37,2.58,4.85,3.15,7.46c0.12,0.56,0.5,5.33,1.85,3.69c0.69-0.84-0.51-3.25-0.71-4.21
				c-2.29-10.57-9.31-18.65-20.25-21.78c-12.1-3.46-24.55,0.52-34.72,6.93C60.02,54.41,59.79,55.3,60.02,55.16z"/>
			<path class="st3" d="M91.29,18.98c-0.14,0-0.25-0.09-0.29-0.23c-0.04-0.14,0.02-0.28,0.14-0.35c2.02-1.12,3.18-2.32,3.43-3.55
				c0.05-0.23,0.22-0.37,0.46-0.37c0.23,0,0.46,0.13,0.55,0.31c0.08,0.15,0.06,0.31-0.05,0.45c-0.2,0.26-0.38,0.52-0.56,0.78
				c-0.35,0.51-0.72,1.04-1.22,1.49c-0.73,0.67-1.53,1.16-2.35,1.46L91.29,18.98z"/>
			<path class="st2" d="M91.36,18.86c0.87-0.31,1.64-0.82,2.31-1.43c0.74-0.67,1.16-1.49,1.76-2.25c0.36-0.45-0.63-0.89-0.75-0.3
				c-0.34,1.63-2.09,2.85-3.49,3.62C90.99,18.6,91.13,18.94,91.36,18.86L91.36,18.86z"/>
			<g>
				<path class="st2" d="M92.06,18.5c0-0.18-0.19-0.37-0.67-0.37c-3.83,0.19-7.6,1.11-11.04,2.73c-5.43,2.57-9.83,6.81-12.75,11.87
					c-3.66,6.35-4.2,13.41-5.31,20.45c0.29,0.09,0.62,0.05,0.87-0.11c0.88-6.8,1.88-14.46,5.71-20.39c2.38-3.7,5.52-6.94,9.18-9.51
					c3.98-2.8,8.35-3.97,13.3-4.21C91.83,18.94,92.07,18.71,92.06,18.5z"/>
				<path class="st2" d="M95.88,13.98l-0.13-0.09H95.7c-0.08,0-0.15,0.04-0.19,0.1l-0.04,0.16l0.04,0.06
					c4.13,6.11,5.52,15.17,3.38,22.01c-1.5,4.79-4.56,8.28-8.85,10.09c-0.42,0.18-0.68,0.45-0.64,0.66
					c0.01,0.04,0.05,0.17,0.26,0.17h0c0.1,0,0.22-0.03,0.37-0.09c4.65-1.9,8.06-6.01,9.6-11.55
					C101.65,28.16,100.11,19.31,95.88,13.98z"/>
			</g>
			<path class="st2" d="M95.6,14.15c6.48,9.59,4.93,27.08-7.35,32.26c-0.7,0.3,1.03,0.83,1.73,0.54
				c12.37-5.05,12.95-23.91,5.81-32.91C95.71,13.95,95.54,14.03,95.6,14.15L95.6,14.15z"/>
			<path class="st0" d="M66.07,50.69c12.68-5.79,22.69-15.65,28.75-27.73c0.18-0.36-0.37-0.67-0.56-0.31
				C88.08,34.8,78.42,44.17,66.04,50.64C66,50.66,66.03,50.71,66.07,50.69L66.07,50.69z"/>
			<path class="st0" d="M74.91,38.45c0.5,1.58,0.96,3.17,1.47,4.74c0.05,0.16,0.32,0.09,0.26-0.07c-0.55-1.57-1.14-3.12-1.69-4.68
				C74.94,38.42,74.91,38.43,74.91,38.45L74.91,38.45z"/>
			<path class="st0" d="M95.57,35.74c-3.73,2.52-7.9,3.68-12.46,3.6c-0.32-0.01-0.32,0.47,0,0.48c4.59,0.05,8.85-1.36,12.49-4.02
				C95.63,35.76,95.6,35.71,95.57,35.74L95.57,35.74z"/>
			<path class="st0" d="M83.46,24.4c-0.32,3.2,0.75,6.34,3.13,8.64c0.27,0.26,0.69-0.14,0.42-0.4c-2.33-2.25-3.59-5.05-3.5-8.23
				C83.51,24.37,83.46,24.37,83.46,24.4L83.46,24.4z"/>
			<path class="st4" d="M53.92,30.58c-0.02-0.05,0.01-0.11,0.04-0.15c0.7-1.09,1.36-2.3,0.73-3.59c-0.25-0.52-0.76-0.99-1.36-0.99
				c-0.99,0.01-1.72,0.89-2.44,1.42c-0.81,0.6-1.6,1.23-2.33,1.92c-1.68,1.59-3.08,3.54-3.64,5.76c-0.09,0.36-0.15,0.75,0.04,1.07
				c0.09,0.15,0.23,0.28,0.37,0.39c0.19,0.15,0.41,0.28,0.65,0.35c0.57,0.17,1.2-0.03,1.67-0.37c0.63-0.45,0.94-1.2,1.59-1.62
				c0.28-0.18,0.62-0.28,0.95-0.22c2.26,0.43,4.36,2.84,5.62,4.53c1.56,2.1,2.73,4.48,3.51,6.94c0.74,2.37,1.27,5.06,0.68,7.51
				c-0.03,0.14,0,0.25,0.07,0.33c-0.1,0.25-0.21,0.5-0.32,0.75c-0.04,0.08,0.04,0.18,0.14,0.13c0.35-0.19,0.6-0.47,0.78-0.79
				c0.07-0.05,0.12-0.11,0.15-0.21c0.01-0.06,0.02-0.11,0.03-0.17c0.12-0.33,0.19-0.68,0.18-1.06C61.61,48,59.47,43.94,57,40.08
				c-1.39-2.18-3.24-4.64-5.78-5.68c-0.74-0.3-1.63-0.37-2.31,0.04c-0.87,0.53-1.76,2.79-3.08,1.75c-0.92-0.73-0.11-2.14,0.29-2.95
				c0.5-1.03,1.19-1.96,1.99-2.8c0.6-0.63,1.27-1.21,1.94-1.77c0.85-0.72,1.97-1.77,3.08-2.1c0.27-0.08,0.58-0.07,0.8,0.09
				c0.2,0.14,0.3,0.36,0.37,0.58c0.77,2.39-1.67,3.86-3.29,5.21c-0.5,0.41-0.96,0.87-1.37,1.36c1.06-1.04,2.25-1.96,3.54-2.72
				c0.05-0.03,0.1-0.06,0.16-0.05c0.05,0,0.09,0.03,0.13,0.06c5.03,3.41,8.79,8.46,9.34,14.45c0.22,2.36-0.07,4.79-0.85,7.04
				c-0.12,0.37,0.48,0.53,0.6,0.16c0.63-1.87,0.91-3.82,0.9-5.77c0.23,0.16,0.19-0.42,0.15-0.75c-0.55-5.84-3.07-11.2-8.14-14.64
				c-0.49-0.33-1.06-0.58-1.51-0.96C53.95,30.62,53.94,30.61,53.92,30.58z M53.53,30.92c0.04,0.04,0.1,0.08,0.14,0.12
				c-0.06-0.03-0.12-0.06-0.19-0.09C53.5,30.94,53.51,30.93,53.53,30.92z"/>
		</g>
	</g>
	
		<linearGradient id="SVGID_2_" gradientUnits="userSpaceOnUse" x1="24.7079" y1="55.3826" x2="92.2624" y2="55.3826" gradientTransform="matrix(-0.9988 -0.0482 0.0482 -0.9988 131.5801 178.7881)">
		<stop  offset="0" style="stop-color:#CEDC07"/>
		<stop  offset="0.1202" style="stop-color:#C3D90E"/>
		<stop  offset="0.3324" style="stop-color:#A5D220"/>
		<stop  offset="0.6117" style="stop-color:#75C73E"/>
		<stop  offset="0.944" style="stop-color:#33B767"/>
		<stop  offset="1" style="stop-color:#27B46E"/>
	</linearGradient>
	<path class="st5" d="M65.32,131.99c9.67,0.16,16.08-1.63,23.97-5.03c0.46-0.2,2.45-0.48,3.49-0.62c0.45-0.06,0.89-0.13,1.33-0.23
		c7.37-1.66,13.53-6.63,15.68-12.72c0.29-0.83,0.47-1.84-0.23-2.48c-0.62-0.56-1.64-0.61-2.56-0.6c-6.65,0.06-13.3,0.73-19.77,2
		c-1.71,0.33-8.15,2.57-16.28,1.65c-8.46-0.96-14.13-5.31-22.8-5.64c-1.35-0.05-2.8-0.04-3.9,0.61c-1.22,0.71-1.7,2.02-1.83,3.26
		c-0.44,4.07,2,8.01,5.03,11.24C51.85,128.09,58.3,132.01,65.32,131.99z"/>
	<g>
		<g>
			<path class="st2" d="M91.01,129.24c12.37,0.63,21.04-5.44,24-14.25c0.21-0.64-0.3-1.28-1.04-1.28c-0.01,0-0.02,0-0.03,0
				c-0.48,0-0.89,0.3-1.02,0.72c-2.72,8.67-9.84,14.16-22.2,14.17C90.55,128.6,90.83,129.23,91.01,129.24z"/>
			<path class="st2" d="M90.72,128.6c-9.42,4.18-21.5,6.99-32.12,4.35c-5.15-1.28-10.27-4.01-13.15-7.83
				c-1.03-1.37-1.81-2.85-2.58-4.33c-1.04-1.99-2.23-4.08-2.65-6.24c-0.09-0.46-0.23-4.39-1.58-3.1c-0.69,0.66,0.33,2.69,0.49,3.48
				c1.7,8.76,7.97,15.67,18.19,18.68c11.29,3.32,23.25,0.57,33.16-4.28C90.69,129.22,90.95,128.5,90.72,128.6z"/>
		</g>
	</g>
	<g>
		<path class="st6" d="M43.01,89.92c-0.21,0.68-0.54,1.36-0.96,2.06c-0.43,0.7-0.91,1.33-1.46,1.89c-0.55,0.56-1.09,0.99-1.62,1.27
			l-0.55,0.31l0.48,0.31c0.19,0.1,0.39,0.24,0.59,0.41c0.2,0.17,0.4,0.35,0.59,0.54c0.19,0.18,0.38,0.38,0.56,0.6
			c0.18,0.22,0.33,0.41,0.43,0.6c0.53,0.86,0.77,1.81,0.71,2.86c-0.02,0.55-0.2,1.17-0.54,1.84c-0.69,1.31-1.55,2.14-2.6,2.49
			c-1.13,0.37-2.31,0.36-3.53-0.03c-1.48-0.45-2.58-1.24-3.31-2.36l-0.42-0.68l-0.16,0.8c-0.15,0.9-0.49,1.56-1.03,1.97
			c-0.21,0.16-0.59,0.23-1.12,0.18c-1.03-0.06-1.78-0.33-2.25-0.8c-0.13-0.14-0.2-0.33-0.23-0.55c-0.02-0.22-0.03-0.92-0.03-2.09
			c0.02-1.6,0.1-2.99,0.22-4.17c0.13-1.21,0.17-3.15,0.13-5.83c-0.06-2.89-0.16-5.07-0.29-6.54c-0.13-1.47-0.34-2.89-0.64-4.24
			c-0.19-0.8-0.27-1.27-0.22-1.41c0.11-0.37,0.57-0.53,1.4-0.48c0.82,0.05,1.62,0.3,2.39,0.74c0.77,0.44,1.3,0.99,1.6,1.66
			c0.3,0.67,0.56,1.9,0.77,3.7c0.11,0.94,0.16,1.69,0.16,2.24c0,0.63,0.03,0.97,0.1,1.01c0.04,0.02,0.1-0.05,0.16-0.21
			c0.08-0.18,0.18-0.47,0.29-0.86c0.68-2.31,1.3-4.03,1.86-5.16c0.39-0.74,0.89-1.41,1.51-2.03c0.28-0.31,0.52-0.55,0.74-0.72
			c0.21-0.17,0.42-0.32,0.63-0.43c0.2-0.11,0.4-0.18,0.59-0.21c0.19-0.03,0.4-0.03,0.61,0.01c0.43,0.02,0.85,0.13,1.27,0.34
			c0.42,0.2,0.81,0.47,1.17,0.78c0.36,0.32,0.71,0.7,1.03,1.14c0.32,0.44,0.59,0.92,0.8,1.43c0.51,1.15,0.76,2.44,0.74,3.87
			C43.59,87.46,43.4,88.72,43.01,89.92z M36.31,102.72c0.19-0.14,0.4-0.39,0.61-0.75c0.21-0.36,0.41-0.75,0.58-1.17
			c0.17-0.42,0.31-0.86,0.42-1.32c0.11-0.46,0.16-0.86,0.16-1.21c0-0.53-0.06-0.91-0.18-1.12c-0.12-0.22-0.36-0.39-0.72-0.54
			c-0.75-0.31-1.84-0.3-3.27,0.03c-0.81,0.18-1.3,0.28-1.48,0.28c-0.13,0-0.22,0.06-0.27,0.18s-0.13,0.52-0.24,1.2
			c-0.13,0.8-0.17,1.33-0.11,1.6c0.05,0.27,0.29,0.8,0.72,1.6c0.34,0.63,0.64,1.09,0.9,1.37c0.26,0.28,0.52,0.44,0.8,0.51
			c0.49,0.08,0.97,0,1.44-0.25C35.92,103,36.13,102.87,36.31,102.72z M37.75,89.15c0.49-0.96,0.88-1.82,1.15-2.56
			c0.28-0.75,0.48-1.45,0.61-2.12c0.13-0.66,0.19-1.37,0.19-2.1c0-0.92-0.07-1.46-0.21-1.61c-0.14-0.15-0.52-0.08-1.14,0.23
			c-0.58,0.27-1.06,0.58-1.46,0.95c-0.4,0.37-0.79,0.93-1.19,1.67c-0.4,0.75-0.79,1.66-1.17,2.73c-0.39,1.07-0.86,2.51-1.41,4.31
			c-0.75,2.5-1.03,3.75-0.83,3.75c0.06,0,0.27-0.1,0.61-0.31c0.39-0.2,0.98-0.56,1.8-1.07c0.75-0.47,1.28-0.91,1.59-1.31
			C36.6,91.32,37.09,90.46,37.75,89.15z"/>
		<path class="st6" d="M58.6,93.21c0.51,0.57-0.66,2.8-3.53,6.69c-1.03,1.41-1.92,2.41-2.68,2.99c-0.76,0.58-1.56,0.9-2.39,0.94
			c-0.54,0.04-0.99,0-1.38-0.12c-1.35-0.35-2.29-0.89-2.82-1.63c-0.56-0.8-0.95-1.83-1.19-3.1c-0.13-0.65-0.18-1.51-0.16-2.58
			c0.02-1.06,0.1-2.06,0.22-2.98c0.13-0.86,0.29-1.69,0.5-2.5c0.2-0.81,0.41-1.48,0.61-2.01c0.2-0.53,0.38-0.83,0.53-0.91
			c0.15-0.07,0.48-0.1,0.99-0.08c0.49,0.04,1.02,0.18,1.59,0.43c0.57,0.25,1.01,0.54,1.33,0.89c0.23,0.27,0.35,0.5,0.35,0.69
			c0,0.19-0.14,0.76-0.42,1.7c-0.28,0.98-0.54,2.34-0.79,4.07c-0.25,1.73-0.37,3.08-0.37,4.07c0,0.49,0.05,1.02,0.16,1.6
			c0.11,0.57,0.2,0.91,0.29,1.01c0.06,0.04,0.15,0.06,0.27,0.05c0.12-0.01,0.26-0.05,0.42-0.12c0.16-0.07,0.34-0.16,0.55-0.28
			c0.2-0.11,0.41-0.25,0.63-0.41c0.49-0.37,1.14-1.01,1.96-1.93c0.81-0.92,1.53-1.83,2.15-2.73c0.96-1.37,1.59-2.5,1.89-3.38
			c0.13-0.41,0.26-0.63,0.39-0.68c0.13-0.04,0.29-0.03,0.48,0.03C58.38,92.99,58.52,93.08,58.6,93.21z M48.37,85.93
			c-0.26-0.1-0.47-0.2-0.64-0.31c-0.17-0.1-0.32-0.22-0.45-0.37c-0.13-0.14-0.24-0.3-0.32-0.48c-0.09-0.17-0.15-0.36-0.19-0.57
			c-0.04-0.2-0.07-0.45-0.1-0.74c-0.04-0.51,0-0.98,0.13-1.41c0.13-0.47,0.33-0.96,0.61-1.47c0.28-0.51,0.5-0.84,0.67-0.98
			c0.34-0.18,0.76-0.24,1.25-0.15c0.49,0.08,0.96,0.28,1.41,0.58c0.45,0.31,0.67,0.61,0.67,0.92c0,0.23-0.1,0.67-0.29,1.32
			c-0.17,0.66-0.36,1.38-0.58,2.18c-0.21,0.88-0.36,1.39-0.45,1.52c-0.09,0.13-0.3,0.19-0.64,0.17
			C49.05,86.15,48.69,86.08,48.37,85.93z"/>
		<path class="st6" d="M70.99,93.12c0.3,0.1,0.47,0.23,0.51,0.38c0.04,0.15,0,0.44-0.13,0.87c-0.15,0.51-0.35,1.17-0.61,1.96
			c-0.28,0.94-0.61,1.84-1,2.7c-0.3,0.61-0.72,1.33-1.25,2.15c-0.53,0.82-0.98,1.4-1.35,1.75c-0.45,0.45-1.05,0.76-1.81,0.94
			c-0.76,0.17-1.5,0.18-2.23,0.01c-1.09-0.25-1.95-0.58-2.58-1c-0.63-0.42-1.19-1.05-1.68-1.89c-0.43-0.74-0.77-1.52-1.01-2.35
			c-0.25-0.83-0.43-1.79-0.55-2.87c-0.12-1.08-0.18-2.4-0.18-3.96c0-1.21,0.03-2.24,0.1-3.09c0.06-0.85,0.17-1.66,0.32-2.42
			c0.15-0.77,0.37-1.6,0.67-2.5c1.09-3.46,2.66-5.73,4.72-6.82c1.09-0.55,2.32-0.61,3.67-0.18c1.36,0.43,2.29,1.18,2.81,2.24
			c0.3,0.61,0.4,1.32,0.29,2.1c-0.11,0.79-0.43,1.79-0.96,2.99c-0.6,1.31-1.43,2.73-2.5,4.27c-0.86,1.23-1.93,2.6-3.21,4.11
			c-0.11,0.1-0.17,0.29-0.19,0.57c-0.02,0.28-0.03,0.95-0.03,2.01c0,1.56,0.08,2.85,0.26,3.9c0.41,2.48,0.76,3.71,1.06,3.71
			c0.06,0,0.3-0.07,0.71-0.21c0.68-0.23,1.44-0.9,2.28-2.03c0.53-0.7,1.08-1.66,1.64-2.9c0.56-1.24,0.95-2.36,1.19-3.36
			c0.13-0.59,0.26-0.95,0.39-1.07C70.44,93.02,70.67,93.01,70.99,93.12z M64.6,83.17c-0.3,1-0.63,2.31-0.99,3.93
			c-0.36,1.62-0.54,2.62-0.51,3.01c0,0.08,0.01,0.12,0.03,0.12l0.23-0.21c0.19-0.22,0.59-0.76,1.19-1.6
			c0.81-1.13,1.51-2.21,2.1-3.25c0.59-1.04,1.04-1.99,1.35-2.84c0.31-0.85,0.46-1.57,0.46-2.16c0.02-0.9-0.11-1.36-0.39-1.38
			c-0.64-0.06-1.27,0.3-1.88,1.07C65.58,80.63,65.05,81.74,64.6,83.17z"/>
		<path class="st6" d="M91.62,93.79l0.26,0.18l-0.71,1.66c-0.47,1.13-0.71,1.71-0.71,1.75c0,0.06-0.2,0.57-0.61,1.52
			c-0.41,0.95-0.73,1.66-0.96,2.13c-0.49,1.02-0.99,1.82-1.49,2.39c-0.5,0.57-1.04,0.96-1.62,1.17s-1.24,0.23-1.99,0.06
			c-0.51-0.1-1.01-0.27-1.48-0.49c-0.43-0.18-0.87-0.5-1.32-0.94c-0.45-0.44-0.77-0.85-0.96-1.24c-0.06-0.14-0.13-0.32-0.21-0.54
			c-0.08-0.21-0.14-0.46-0.21-0.72c-0.06-0.27-0.12-0.53-0.18-0.8c-0.05-0.27-0.1-0.52-0.13-0.75c-0.03-0.23-0.05-0.45-0.05-0.63
			c0-0.31-0.02-0.47-0.06-0.49c-0.02-0.02-0.08,0.06-0.16,0.25l-0.16,0.37c-0.15,0.37-0.51,1.14-1.09,2.3
			c-0.86,1.68-1.64,2.78-2.34,3.32c-0.21,0.14-0.4,0.23-0.55,0.26c-0.15,0.03-0.48,0.04-0.99,0.02c-0.73,0-1.31-0.08-1.75-0.25
			c-0.44-0.16-0.88-0.46-1.33-0.89c-0.66-0.61-1.12-1.35-1.38-2.21s-0.36-1.96-0.32-3.32c0.09-1.82,0.44-3.48,1.06-4.97
			c1.03-2.35,2.19-3.95,3.48-4.8c1.29-0.85,2.69-0.92,4.19-0.2c1.03,0.49,1.76,1.12,2.21,1.87l0.32,0.55l0.26-0.71
			c0.39-1.08,0.77-1.73,1.16-1.93c0.45-0.22,1.13-0.12,2.04,0.32c0.91,0.44,1.52,0.95,1.84,1.52c0.26,0.49,0.26,1.44,0,2.85
			c-0.21,1.13-0.44,2.52-0.69,4.19c-0.25,1.67-0.38,2.8-0.4,3.39c-0.11,1.31,0,2.35,0.32,3.13c0.04,0.14,0.08,0.23,0.13,0.25
			c0.04,0.02,0.11,0,0.19-0.06c0.21-0.1,0.5-0.32,0.85-0.66c0.35-0.34,0.66-0.68,0.91-1.03c0.51-0.68,1.13-1.8,1.86-3.38
			c0.73-1.58,1.25-2.9,1.57-3.96c0.04-0.18,0.08-0.31,0.11-0.38c0.03-0.07,0.07-0.14,0.11-0.2c0.04-0.06,0.09-0.09,0.13-0.09
			s0.12,0,0.22,0C91.25,93.61,91.45,93.67,91.62,93.79z M78.3,97.04c0.94-2.41,1.34-3.81,1.19-4.18c-0.06-0.18-0.1-0.41-0.1-0.68
			c0-0.59-0.16-1.14-0.48-1.63l-0.22-0.37l-0.35,0.31c-0.56,0.49-1.14,1.26-1.76,2.3c-0.62,1.04-1.12,2.08-1.51,3.1
			c-0.36,0.98-0.62,2.06-0.77,3.24c-0.15,1.18-0.17,2.15-0.06,2.93c0.13,0.84,0.25,1.26,0.35,1.26c0.04,0,0.26-0.19,0.66-0.58
			c0.4-0.39,0.88-1.12,1.46-2.18C77.28,99.51,77.81,98.33,78.3,97.04z"/>
		<path class="st6" d="M111.93,92.9c0.15-0.02,0.28-0.01,0.4,0.03c0.12,0.04,0.21,0.1,0.27,0.18c0.06,0.08,0.1,0.18,0.1,0.31
			c0,0.37-0.31,1.47-0.93,3.32c-0.62,1.84-1.1,3.09-1.44,3.75c-0.51,1-1.13,1.89-1.86,2.67c-1.18,1.29-2.68,1.7-4.52,1.23
			c-1.6-0.43-2.78-1.28-3.53-2.55c-0.3-0.49-0.5-0.98-0.61-1.47c-0.11-0.49-0.16-1.17-0.16-2.03c0-1.04,0.13-2.08,0.4-3.1
			c0.27-1.02,0.9-2.95,1.91-5.77c0.39-1.08,0.61-1.86,0.67-2.33c0.04-0.43,0.01-0.66-0.1-0.69c-0.11-0.03-0.44,0.08-1,0.32
			c-0.88,0.39-1.63,1.09-2.26,2.1c-0.63,1.01-1.26,2.49-1.88,4.44c-0.34,1.09-0.72,2.81-1.12,5.17c-0.41,2.36-0.54,3.69-0.42,3.98
			c0.04,0.12-0.02,0.29-0.18,0.49c-0.16,0.21-0.35,0.35-0.56,0.43c-0.24,0.1-0.65,0.13-1.24,0.09c-0.59-0.04-1.08-0.12-1.46-0.25
			c-0.92-0.31-1.51-0.74-1.76-1.29c-0.49-1.04-0.74-3.48-0.74-7.31c0-1.47,0.02-2.4,0.05-2.78c0.03-0.38,0.12-0.88,0.27-1.52
			c0.21-0.86,0.41-1.38,0.59-1.57c0.18-0.18,0.57-0.26,1.17-0.22c1.15,0.06,2.07,0.41,2.76,1.04c0.39,0.35,0.62,0.72,0.71,1.12
			c0.08,0.4,0.14,1.28,0.16,2.66v2.27l0.19-0.92c0.26-1.08,0.63-2.3,1.11-3.64c0.48-1.34,0.89-2.31,1.24-2.9
			c0.79-1.31,1.81-2.24,3.05-2.79c0.45-0.18,0.89-0.26,1.32-0.21c0.71,0.06,1.38,0.33,2.04,0.8c0.65,0.47,1.15,1.05,1.49,1.75
			c0.36,0.76,0.55,1.59,0.55,2.5c0,0.91-0.17,2.24-0.51,3.98c-0.47,2.35-0.78,4.03-0.91,5.03c-0.14,1-0.18,1.83-0.11,2.49
			c0.06,0.63,0.13,1.05,0.19,1.26c0.06,0.12,0.12,0.19,0.18,0.21c0.05,0.02,0.18,0.01,0.37-0.03c0.26-0.06,0.65-0.29,1.19-0.68
			c0.66-0.51,1.2-1.1,1.62-1.77c0.42-0.66,0.92-1.71,1.52-3.15c0.83-2.07,1.3-3.42,1.41-4.05c0.04-0.27,0.08-0.43,0.13-0.49
			C111.72,92.96,111.8,92.92,111.93,92.9z"/>
		<path class="st6" d="M130.22,93.27c0.11-0.06,0.27,0.03,0.48,0.28c0.21,0.25,0.32,0.46,0.32,0.64s-0.14,0.53-0.42,1.04
			c-0.32,0.59-0.95,1.32-1.89,2.18c-0.94,0.86-1.94,1.63-2.98,2.3l-1.64,1.01l0.1,0.52c0.15,0.9,0.11,1.85-0.13,2.85
			c-0.24,1-0.61,1.92-1.11,2.76c-0.5,0.84-1.13,1.58-1.88,2.23c-0.75,0.64-1.53,1.09-2.34,1.34c-0.83,0.23-1.67,0.29-2.5,0.18
			c-1.67-0.16-2.8-0.7-3.4-1.6c-0.26-0.37-0.37-0.7-0.35-1c0.02-0.3,0.17-0.74,0.45-1.34c0.41-0.78,0.98-1.48,1.73-2.1
			c0.75-0.62,1.76-1.24,3.05-1.86c2.01-0.96,3.08-1.54,3.21-1.75c0.06-0.06,0.17-0.31,0.32-0.75c0.15-0.44,0.25-0.76,0.29-0.97
			c0.02-0.12,0.01-0.22-0.03-0.28c-0.04-0.06-0.17-0.13-0.39-0.21c-0.32-0.12-0.75-0.18-1.28-0.18c-0.36,0-0.65,0.03-0.85,0.08
			c-0.2,0.05-0.57,0.21-1.11,0.48c-1.5,0.7-2.54,0.96-3.11,0.8c-0.3-0.08-0.63-0.27-0.98-0.57c-0.35-0.3-0.58-0.59-0.69-0.87
			c-0.15-0.33-0.14-0.6,0.03-0.81c0.17-0.21,0.65-0.58,1.44-1.09c0.92-0.59,1.7-1.12,2.34-1.57c0.15-0.1,0.43-0.29,0.83-0.57
			c0.41-0.28,0.67-0.47,0.8-0.57c0.3-0.2,0.63-0.47,0.99-0.78c0.36-0.32,0.7-0.63,1.01-0.94c0.31-0.31,0.52-0.55,0.63-0.74
			c0.21-0.31,0.39-0.63,0.51-0.98l0.22-0.55l-0.71,0.34c-0.47,0.21-0.82,0.39-1.06,0.55c-0.6,0.45-1.36,0.95-2.29,1.49
			c-0.93,0.54-1.82,1.03-2.68,1.46c-0.86,0.43-1.51,0.71-1.96,0.83c-0.34,0.1-0.79,0.13-1.33,0.09c-0.55-0.04-0.98-0.14-1.3-0.31
			c-0.28-0.12-0.54-0.3-0.79-0.52c-0.25-0.22-0.46-0.47-0.64-0.72c-0.18-0.26-0.33-0.53-0.43-0.81c-0.11-0.29-0.16-0.55-0.16-0.8
			c0-0.76,0.26-1.6,0.77-2.53c0.51-0.93,0.98-1.4,1.41-1.4c0.53,0,1.18,0.36,1.94,1.09c0.76,0.73,1.14,1.36,1.14,1.89
			c0,0.33-0.25,0.85-0.74,1.57c-0.09,0.1-0.11,0.15-0.06,0.15c0.06,0,0.35-0.16,0.87-0.49c0.66-0.41,1.42-0.86,2.28-1.35
			c1.39-0.8,2.37-1.31,2.94-1.53c0.57-0.22,1.17-0.32,1.81-0.28c0.51,0.04,0.84,0.06,0.99,0.06c0.17,0,0.41,0.13,0.71,0.4
			s0.53,0.56,0.71,0.89c0.68,1.21,0.77,2.54,0.26,3.99c-0.34,0.96-0.97,1.86-1.89,2.7l-0.8,0.71l0.61,0.28
			c0.64,0.27,1.25,0.77,1.83,1.5l0.26,0.37l1.38-0.95c0.92-0.61,1.76-1.25,2.54-1.9c1.03-0.86,1.72-1.63,2.09-2.3
			C129.92,93.69,130.13,93.33,130.22,93.27z M116.78,106.38c0.47-0.51,1.05-1.16,1.73-1.93c0.68-0.78,1.03-1.2,1.03-1.26
			c0-0.04-0.18,0.02-0.53,0.17c-0.35,0.15-0.75,0.34-1.2,0.57c-0.45,0.23-0.79,0.41-1.03,0.55c-1.56,0.98-2.49,2.12-2.79,3.41
			c-0.09,0.37-0.08,0.55,0.02,0.55c0.1,0,0.41-0.17,0.95-0.52C115.5,107.56,116.11,107.05,116.78,106.38z"/>
	</g>
	<g>
		<path class="st0" d="M44.15,89.92c-0.21,0.68-0.54,1.36-0.96,2.06c-0.43,0.7-0.91,1.33-1.46,1.89c-0.55,0.56-1.09,0.99-1.62,1.27
			l-0.55,0.31l0.48,0.31c0.19,0.1,0.39,0.24,0.59,0.41c0.2,0.17,0.4,0.35,0.59,0.54c0.19,0.18,0.38,0.38,0.56,0.6
			c0.18,0.22,0.33,0.41,0.43,0.6c0.53,0.86,0.77,1.81,0.71,2.86c-0.02,0.55-0.2,1.17-0.54,1.84c-0.69,1.31-1.55,2.14-2.6,2.49
			c-1.13,0.37-2.31,0.36-3.53-0.03c-1.48-0.45-2.58-1.24-3.31-2.36l-0.42-0.68l-0.16,0.8c-0.15,0.9-0.49,1.56-1.03,1.97
			c-0.21,0.16-0.59,0.23-1.12,0.18c-1.03-0.06-1.78-0.33-2.25-0.8c-0.13-0.14-0.2-0.33-0.23-0.55c-0.02-0.22-0.03-0.92-0.03-2.09
			c0.02-1.6,0.1-2.99,0.22-4.17c0.13-1.21,0.17-3.15,0.13-5.83c-0.06-2.89-0.16-5.07-0.29-6.54c-0.13-1.47-0.34-2.89-0.64-4.24
			c-0.19-0.8-0.27-1.27-0.22-1.41c0.11-0.37,0.57-0.53,1.4-0.48c0.82,0.05,1.62,0.3,2.39,0.74c0.77,0.44,1.3,0.99,1.6,1.66
			c0.3,0.67,0.56,1.9,0.77,3.7c0.11,0.94,0.16,1.69,0.16,2.24c0,0.63,0.03,0.97,0.1,1.01c0.04,0.02,0.1-0.05,0.16-0.21
			c0.08-0.18,0.18-0.47,0.29-0.86c0.68-2.31,1.3-4.03,1.86-5.16c0.39-0.74,0.89-1.41,1.51-2.03c0.28-0.31,0.52-0.55,0.74-0.72
			c0.21-0.17,0.42-0.32,0.63-0.43c0.2-0.11,0.4-0.18,0.59-0.21c0.19-0.03,0.4-0.03,0.61,0.01c0.43,0.02,0.85,0.13,1.27,0.34
			c0.42,0.2,0.81,0.47,1.17,0.78c0.36,0.32,0.71,0.7,1.03,1.14c0.32,0.44,0.59,0.92,0.8,1.43c0.51,1.15,0.76,2.44,0.74,3.87
			C44.73,87.46,44.53,88.72,44.15,89.92z M37.44,102.72c0.19-0.14,0.4-0.39,0.61-0.75c0.21-0.36,0.41-0.75,0.58-1.17
			c0.17-0.42,0.31-0.86,0.42-1.32c0.11-0.46,0.16-0.86,0.16-1.21c0-0.53-0.06-0.91-0.18-1.12c-0.12-0.22-0.36-0.39-0.72-0.54
			c-0.75-0.31-1.84-0.3-3.27,0.03c-0.81,0.18-1.3,0.28-1.48,0.28c-0.13,0-0.22,0.06-0.27,0.18c-0.05,0.12-0.13,0.52-0.24,1.2
			c-0.13,0.8-0.17,1.33-0.11,1.6c0.05,0.27,0.29,0.8,0.72,1.6c0.34,0.63,0.64,1.09,0.9,1.37c0.26,0.28,0.52,0.44,0.8,0.51
			c0.49,0.08,0.97,0,1.44-0.25C37.06,103,37.27,102.87,37.44,102.72z M38.89,89.15c0.49-0.96,0.88-1.82,1.15-2.56
			c0.28-0.75,0.48-1.45,0.61-2.12c0.13-0.66,0.19-1.37,0.19-2.1c0-0.92-0.07-1.46-0.21-1.61c-0.14-0.15-0.52-0.08-1.14,0.23
			c-0.58,0.27-1.06,0.58-1.46,0.95c-0.4,0.37-0.79,0.93-1.19,1.67c-0.4,0.75-0.79,1.66-1.17,2.73s-0.86,2.51-1.41,4.31
			c-0.75,2.5-1.03,3.75-0.83,3.75c0.06,0,0.27-0.1,0.61-0.31c0.39-0.2,0.98-0.56,1.8-1.07c0.75-0.47,1.28-0.91,1.59-1.31
			C37.74,91.32,38.22,90.46,38.89,89.15z"/>
		<path class="st0" d="M59.74,93.21c0.51,0.57-0.66,2.8-3.53,6.69c-1.03,1.41-1.92,2.41-2.68,2.99c-0.76,0.58-1.56,0.9-2.39,0.94
			c-0.54,0.04-0.99,0-1.38-0.12c-1.35-0.35-2.29-0.89-2.82-1.63c-0.56-0.8-0.95-1.83-1.19-3.1c-0.13-0.65-0.18-1.51-0.16-2.58
			c0.02-1.06,0.1-2.06,0.22-2.98c0.13-0.86,0.29-1.69,0.5-2.5c0.2-0.81,0.41-1.48,0.61-2.01c0.2-0.53,0.38-0.83,0.53-0.91
			c0.15-0.07,0.48-0.1,0.99-0.08c0.49,0.04,1.02,0.18,1.59,0.43c0.57,0.25,1.01,0.54,1.33,0.89c0.23,0.27,0.35,0.5,0.35,0.69
			c0,0.19-0.14,0.76-0.42,1.7c-0.28,0.98-0.54,2.34-0.79,4.07c-0.25,1.73-0.37,3.08-0.37,4.07c0,0.49,0.05,1.02,0.16,1.6
			c0.11,0.57,0.2,0.91,0.29,1.01c0.06,0.04,0.15,0.06,0.27,0.05c0.12-0.01,0.26-0.05,0.42-0.12c0.16-0.07,0.34-0.16,0.55-0.28
			c0.2-0.11,0.41-0.25,0.63-0.41c0.49-0.37,1.14-1.01,1.96-1.93c0.81-0.92,1.53-1.83,2.15-2.73c0.96-1.37,1.59-2.5,1.89-3.38
			c0.13-0.41,0.26-0.63,0.39-0.68c0.13-0.04,0.29-0.03,0.48,0.03C59.52,92.99,59.66,93.08,59.74,93.21z M49.51,85.93
			c-0.26-0.1-0.47-0.2-0.64-0.31c-0.17-0.1-0.32-0.22-0.45-0.37c-0.13-0.14-0.24-0.3-0.32-0.48c-0.09-0.17-0.15-0.36-0.19-0.57
			c-0.04-0.2-0.07-0.45-0.1-0.74c-0.04-0.51,0-0.98,0.13-1.41c0.13-0.47,0.33-0.96,0.61-1.47c0.28-0.51,0.5-0.84,0.67-0.98
			c0.34-0.18,0.76-0.24,1.25-0.15c0.49,0.08,0.96,0.28,1.41,0.58c0.45,0.31,0.67,0.61,0.67,0.92c0,0.23-0.1,0.67-0.29,1.32
			c-0.17,0.66-0.36,1.38-0.58,2.18c-0.21,0.88-0.36,1.39-0.45,1.52c-0.09,0.13-0.3,0.19-0.64,0.17
			C50.19,86.15,49.83,86.08,49.51,85.93z"/>
		<path class="st0" d="M72.13,93.12c0.3,0.1,0.47,0.23,0.51,0.38c0.04,0.15,0,0.44-0.13,0.87c-0.15,0.51-0.35,1.17-0.61,1.96
			c-0.28,0.94-0.61,1.84-1,2.7c-0.3,0.61-0.72,1.33-1.25,2.15c-0.53,0.82-0.98,1.4-1.35,1.75c-0.45,0.45-1.05,0.76-1.81,0.94
			c-0.76,0.17-1.5,0.18-2.23,0.01c-1.09-0.25-1.95-0.58-2.58-1c-0.63-0.42-1.19-1.05-1.68-1.89c-0.43-0.74-0.77-1.52-1.01-2.35
			c-0.25-0.83-0.43-1.79-0.55-2.87c-0.12-1.08-0.18-2.4-0.18-3.96c0-1.21,0.03-2.24,0.1-3.09c0.06-0.85,0.17-1.66,0.32-2.42
			c0.15-0.77,0.37-1.6,0.67-2.5c1.09-3.46,2.66-5.73,4.72-6.82c1.09-0.55,2.32-0.61,3.67-0.18c1.36,0.43,2.29,1.18,2.81,2.24
			c0.3,0.61,0.4,1.32,0.29,2.1c-0.11,0.79-0.43,1.79-0.96,2.99c-0.6,1.31-1.43,2.73-2.5,4.27c-0.86,1.23-1.93,2.6-3.21,4.11
			c-0.11,0.1-0.17,0.29-0.19,0.57c-0.02,0.28-0.03,0.95-0.03,2.01c0,1.56,0.08,2.85,0.26,3.9c0.41,2.48,0.76,3.71,1.06,3.71
			c0.06,0,0.3-0.07,0.71-0.21c0.68-0.23,1.44-0.9,2.28-2.03c0.53-0.7,1.08-1.66,1.64-2.9c0.56-1.24,0.95-2.36,1.19-3.36
			c0.13-0.59,0.26-0.95,0.39-1.07C71.58,93.02,71.8,93.01,72.13,93.12z M65.74,83.17c-0.3,1-0.63,2.31-0.99,3.93
			c-0.36,1.62-0.54,2.62-0.51,3.01c0,0.08,0.01,0.12,0.03,0.12l0.23-0.21c0.19-0.22,0.59-0.76,1.19-1.6
			c0.81-1.13,1.51-2.21,2.1-3.25c0.59-1.04,1.04-1.99,1.35-2.84c0.31-0.85,0.46-1.57,0.46-2.16c0.02-0.9-0.11-1.36-0.39-1.38
			c-0.64-0.06-1.27,0.3-1.88,1.07C66.72,80.63,66.19,81.74,65.74,83.17z"/>
		<path class="st0" d="M92.76,93.79l0.26,0.18l-0.71,1.66c-0.47,1.13-0.71,1.71-0.71,1.75c0,0.06-0.2,0.57-0.61,1.52
			c-0.41,0.95-0.73,1.66-0.96,2.13c-0.49,1.02-0.99,1.82-1.49,2.39c-0.5,0.57-1.04,0.96-1.62,1.17s-1.24,0.23-1.99,0.06
			c-0.51-0.1-1.01-0.27-1.48-0.49c-0.43-0.18-0.87-0.5-1.32-0.94c-0.45-0.44-0.77-0.85-0.96-1.24c-0.06-0.14-0.13-0.32-0.21-0.54
			c-0.08-0.21-0.14-0.46-0.21-0.72c-0.06-0.27-0.12-0.53-0.18-0.8c-0.05-0.27-0.1-0.52-0.13-0.75c-0.03-0.23-0.05-0.45-0.05-0.63
			c0-0.31-0.02-0.47-0.06-0.49c-0.02-0.02-0.08,0.06-0.16,0.25l-0.16,0.37c-0.15,0.37-0.51,1.14-1.09,2.3
			c-0.86,1.68-1.64,2.78-2.34,3.32c-0.21,0.14-0.4,0.23-0.55,0.26c-0.15,0.03-0.48,0.04-0.99,0.02c-0.73,0-1.31-0.08-1.75-0.25
			c-0.44-0.16-0.88-0.46-1.33-0.89c-0.66-0.61-1.12-1.35-1.38-2.21s-0.36-1.96-0.32-3.32c0.09-1.82,0.44-3.48,1.06-4.97
			c1.03-2.35,2.19-3.95,3.48-4.8c1.29-0.85,2.69-0.92,4.19-0.2c1.03,0.49,1.76,1.12,2.21,1.87l0.32,0.55l0.26-0.71
			c0.39-1.08,0.77-1.73,1.16-1.93c0.45-0.22,1.13-0.12,2.04,0.32c0.91,0.44,1.52,0.95,1.84,1.52c0.26,0.49,0.26,1.44,0,2.85
			c-0.21,1.13-0.44,2.52-0.69,4.19c-0.25,1.67-0.38,2.8-0.4,3.39c-0.11,1.31,0,2.35,0.32,3.13c0.04,0.14,0.08,0.23,0.13,0.25
			c0.04,0.02,0.11,0,0.19-0.06c0.21-0.1,0.5-0.32,0.85-0.66c0.35-0.34,0.66-0.68,0.91-1.03c0.51-0.68,1.13-1.8,1.86-3.38
			c0.73-1.58,1.25-2.9,1.57-3.96c0.04-0.18,0.08-0.31,0.11-0.38c0.03-0.07,0.07-0.14,0.11-0.2s0.09-0.09,0.13-0.09
			c0.04,0,0.12,0,0.22,0C92.38,93.61,92.58,93.67,92.76,93.79z M79.44,97.04c0.94-2.41,1.34-3.81,1.19-4.18
			c-0.06-0.18-0.1-0.41-0.1-0.68c0-0.59-0.16-1.14-0.48-1.63l-0.22-0.37l-0.35,0.31c-0.56,0.49-1.14,1.26-1.76,2.3
			c-0.62,1.04-1.12,2.08-1.51,3.1c-0.36,0.98-0.62,2.06-0.77,3.24c-0.15,1.18-0.17,2.15-0.06,2.93c0.13,0.84,0.25,1.26,0.35,1.26
			c0.04,0,0.26-0.19,0.66-0.58c0.4-0.39,0.88-1.12,1.46-2.18C78.41,99.51,78.95,98.33,79.44,97.04z"/>
		<path class="st0" d="M113.07,92.9c0.15-0.02,0.28-0.01,0.4,0.03c0.12,0.04,0.21,0.1,0.27,0.18c0.06,0.08,0.1,0.18,0.1,0.31
			c0,0.37-0.31,1.47-0.93,3.32c-0.62,1.84-1.1,3.09-1.44,3.75c-0.51,1-1.13,1.89-1.86,2.67c-1.18,1.29-2.68,1.7-4.52,1.23
			c-1.6-0.43-2.78-1.28-3.53-2.55c-0.3-0.49-0.5-0.98-0.61-1.47c-0.11-0.49-0.16-1.17-0.16-2.03c0-1.04,0.13-2.08,0.4-3.1
			c0.27-1.02,0.9-2.95,1.91-5.77c0.39-1.08,0.61-1.86,0.67-2.33c0.04-0.43,0.01-0.66-0.1-0.69c-0.11-0.03-0.44,0.08-1,0.32
			c-0.88,0.39-1.63,1.09-2.26,2.1c-0.63,1.01-1.26,2.49-1.88,4.44c-0.34,1.09-0.72,2.81-1.12,5.17c-0.41,2.36-0.54,3.69-0.42,3.98
			c0.04,0.12-0.02,0.29-0.18,0.49c-0.16,0.21-0.35,0.35-0.56,0.43c-0.24,0.1-0.65,0.13-1.24,0.09c-0.59-0.04-1.08-0.12-1.46-0.25
			c-0.92-0.31-1.51-0.74-1.76-1.29c-0.49-1.04-0.74-3.48-0.74-7.31c0-1.47,0.02-2.4,0.05-2.78c0.03-0.38,0.12-0.88,0.27-1.52
			c0.21-0.86,0.41-1.38,0.59-1.57c0.18-0.18,0.57-0.26,1.17-0.22c1.15,0.06,2.07,0.41,2.76,1.04c0.39,0.35,0.62,0.72,0.71,1.12
			c0.08,0.4,0.14,1.28,0.16,2.66v2.27l0.19-0.92c0.26-1.08,0.63-2.3,1.11-3.64c0.48-1.34,0.89-2.31,1.24-2.9
			c0.79-1.31,1.81-2.24,3.05-2.79c0.45-0.18,0.89-0.26,1.32-0.21c0.71,0.06,1.38,0.33,2.04,0.8c0.65,0.47,1.15,1.05,1.49,1.75
			c0.36,0.76,0.55,1.59,0.55,2.5c0,0.91-0.17,2.24-0.51,3.98c-0.47,2.35-0.78,4.03-0.91,5.03c-0.14,1-0.18,1.83-0.11,2.49
			c0.06,0.63,0.13,1.05,0.19,1.26c0.06,0.12,0.12,0.19,0.18,0.21c0.05,0.02,0.18,0.01,0.37-0.03c0.26-0.06,0.65-0.29,1.19-0.68
			c0.66-0.51,1.2-1.1,1.62-1.77c0.42-0.66,0.92-1.71,1.52-3.15c0.83-2.07,1.3-3.42,1.41-4.05c0.04-0.27,0.08-0.43,0.13-0.49
			C112.85,92.96,112.94,92.92,113.07,92.9z"/>
		<path class="st0" d="M131.35,93.27c0.11-0.06,0.27,0.03,0.48,0.28c0.21,0.25,0.32,0.46,0.32,0.64s-0.14,0.53-0.42,1.04
			c-0.32,0.59-0.95,1.32-1.89,2.18c-0.94,0.86-1.94,1.63-2.98,2.3l-1.64,1.01l0.1,0.52c0.15,0.9,0.11,1.85-0.13,2.85
			c-0.24,1-0.61,1.92-1.11,2.76c-0.5,0.84-1.13,1.58-1.88,2.23c-0.75,0.64-1.53,1.09-2.34,1.34c-0.83,0.23-1.67,0.29-2.5,0.18
			c-1.67-0.16-2.8-0.7-3.4-1.6c-0.26-0.37-0.37-0.7-0.35-1c0.02-0.3,0.17-0.74,0.45-1.34c0.41-0.78,0.98-1.48,1.73-2.1
			c0.75-0.62,1.76-1.24,3.05-1.86c2.01-0.96,3.08-1.54,3.21-1.75c0.06-0.06,0.17-0.31,0.32-0.75c0.15-0.44,0.25-0.76,0.29-0.97
			c0.02-0.12,0.01-0.22-0.03-0.28c-0.04-0.06-0.17-0.13-0.39-0.21c-0.32-0.12-0.75-0.18-1.28-0.18c-0.36,0-0.65,0.03-0.85,0.08
			c-0.2,0.05-0.57,0.21-1.11,0.48c-1.5,0.7-2.54,0.96-3.11,0.8c-0.3-0.08-0.63-0.27-0.98-0.57c-0.35-0.3-0.58-0.59-0.69-0.87
			c-0.15-0.33-0.14-0.6,0.03-0.81c0.17-0.21,0.65-0.58,1.44-1.09c0.92-0.59,1.7-1.12,2.34-1.57c0.15-0.1,0.43-0.29,0.83-0.57
			s0.67-0.47,0.8-0.57c0.3-0.2,0.63-0.47,0.99-0.78c0.36-0.32,0.7-0.63,1.01-0.94c0.31-0.31,0.52-0.55,0.63-0.74
			c0.21-0.31,0.39-0.63,0.51-0.98l0.22-0.55l-0.71,0.34c-0.47,0.21-0.82,0.39-1.06,0.55c-0.6,0.45-1.36,0.95-2.29,1.49
			c-0.93,0.54-1.82,1.03-2.68,1.46c-0.86,0.43-1.51,0.71-1.96,0.83c-0.34,0.1-0.79,0.13-1.33,0.09c-0.55-0.04-0.98-0.14-1.3-0.31
			c-0.28-0.12-0.54-0.3-0.79-0.52c-0.25-0.22-0.46-0.47-0.64-0.72c-0.18-0.26-0.33-0.53-0.43-0.81c-0.11-0.29-0.16-0.55-0.16-0.8
			c0-0.76,0.26-1.6,0.77-2.53c0.51-0.93,0.98-1.4,1.41-1.4c0.53,0,1.18,0.36,1.94,1.09c0.76,0.73,1.14,1.36,1.14,1.89
			c0,0.33-0.25,0.85-0.74,1.57c-0.09,0.1-0.11,0.15-0.06,0.15c0.06,0,0.35-0.16,0.87-0.49c0.66-0.41,1.42-0.86,2.28-1.35
			c1.39-0.8,2.37-1.31,2.94-1.53c0.57-0.22,1.17-0.32,1.81-0.28c0.51,0.04,0.84,0.06,0.99,0.06c0.17,0,0.41,0.13,0.71,0.4
			s0.53,0.56,0.71,0.89c0.68,1.21,0.77,2.54,0.26,3.99c-0.34,0.96-0.97,1.86-1.89,2.7l-0.8,0.71l0.61,0.28
			c0.64,0.27,1.25,0.77,1.83,1.5l0.26,0.37l1.38-0.95c0.92-0.61,1.76-1.25,2.54-1.9c1.03-0.86,1.72-1.63,2.09-2.3
			C131.06,93.69,131.27,93.33,131.35,93.27z M117.91,106.38c0.47-0.51,1.05-1.16,1.73-1.93c0.68-0.78,1.03-1.2,1.03-1.26
			c0-0.04-0.18,0.02-0.53,0.17c-0.35,0.15-0.75,0.34-1.2,0.57c-0.45,0.23-0.79,0.41-1.03,0.55c-1.56,0.98-2.49,2.12-2.79,3.41
			c-0.09,0.37-0.08,0.55,0.02,0.55s0.41-0.17,0.95-0.52C116.64,107.56,117.25,107.05,117.91,106.38z"/>
	</g>
	<path class="st7" d="M89.25,53.05c1.75-0.04,3.48,0.2,5.22,0.53c1.73,0.37,3.43,0.93,5.07,1.72c1.6,0.8,3.38,1.68,4.44,3.26
		c0.25,0.4,0.48,0.81,0.69,1.22c0.21,0.41,0.33,0.88,0.44,1.32c0.29,0.86,0.22,1.85,0.09,2.74l-0.33,0.09
		c-1.44-1.26-2.4-2.33-3.54-3.3c-1.14-0.91-1.97-2.17-3.25-3.11c-1.28-0.9-2.68-1.7-4.18-2.4c-1.49-0.71-3.07-1.28-4.7-1.75
		L89.25,53.05z"/>
	<path class="st8" d="M102.87,17.69c1.78,1.43,2.99,3.43,3.72,5.58c0.69,2.17,0.77,4.5,0.43,6.75c-0.3,2.27-1.03,4.47-2.21,6.44
		c-0.67,0.93-1.33,1.85-2.1,2.7c-0.81,0.81-1.65,1.59-2.58,2.27l-0.18-0.14c0.41-1.07,0.9-2.04,1.43-2.99
		c0.46-0.98,0.92-1.94,1.42-2.87c0.78-1.94,1.97-3.72,2.43-5.75c0.53-2,0.68-4.1,0.25-6.15c-0.38-2.04-1.31-4.05-2.77-5.68
		L102.87,17.69z"/>
	<path class="st8" d="M33.84,121.8c1.08,1.77,2.39,3.4,3.86,4.87c1.44,1.48,3.03,2.83,4.76,3.97c1.72,1.15,3.61,2,5.41,2.97
		c0.88,0.54,1.83,0.95,2.75,1.47c0.93,0.5,1.9,0.92,2.84,1.54l-0.06,0.21c-2.24,0.02-4.47-0.42-6.53-1.26
		c-2.11-0.76-3.86-2.2-5.54-3.56c-1.69-1.38-3.19-2.96-4.51-4.64c-1.28-1.71-2.42-3.51-3.19-5.48L33.84,121.8z"/>
</g>
</svg>
